<svg version="1.1" id="Layer_1" xmlns="http://www.w3.org/2000/svg" xmlns:xlink="http://www.w3.org/1999/xlink" x="0px" y="0px"
	 width="100%" viewBox="0 0 500 500" enable-background="new 0 0 500 500" xml:space="preserve">
<path fill="#f7f7f7" opacity="0" stroke="none" 
	d="
M329.000000,501.000000 
	C219.333359,501.000000 110.166718,501.000000 1.000059,501.000000 
	C1.000039,334.333405 1.000039,167.666794 1.000020,1.000148 
	C167.666565,1.000099 334.333130,1.000099 500.999756,1.000049 
	C500.999847,167.666519 500.999847,334.333038 500.999939,500.999786 
	C443.833344,501.000000 386.666656,501.000000 329.000000,501.000000 
M230.644531,363.533203 
	C230.471527,363.389191 230.298523,363.245209 230.223648,362.673340 
	C229.855682,362.433075 229.487717,362.192841 228.958755,361.301819 
	C220.737579,355.321472 207.008362,354.905090 199.680740,360.531921 
	C200.241760,361.657990 200.819138,362.816956 201.687775,364.604980 
	C202.519623,367.158875 204.131012,366.874847 206.380737,366.415680 
	C210.031677,365.670502 213.855957,365.142365 217.525696,365.460602 
	C218.830887,365.573792 220.181625,368.308563 220.887802,370.093384 
	C221.077652,370.573242 218.977615,371.959045 217.092316,372.710449 
	C215.091034,372.827515 213.089767,372.944580 210.265259,372.907593 
	C206.843857,374.060211 203.422455,375.212830 199.398407,376.570862 
	C193.965561,382.640045 194.015320,390.333191 199.534195,396.505524 
	C199.534195,396.505524 199.641266,396.512421 199.876068,396.893250 
	C200.299408,396.989075 200.722748,397.084900 201.670410,397.567932 
	C202.092148,397.662140 202.513901,397.756317 203.389862,398.181305 
	C203.927979,398.278473 204.466095,398.375641 205.607208,398.764618 
	C206.050156,398.786346 206.493118,398.808105 207.701233,399.042084 
	C208.485001,398.972321 209.268768,398.902527 210.803818,398.884247 
	C211.526306,398.704285 212.248795,398.524353 213.683716,398.408295 
	C216.508423,397.104950 219.333130,395.801636 222.268372,394.447327 
	C222.750076,395.212280 223.335281,396.141602 224.201065,397.738800 
	C226.928268,397.922119 229.655472,398.105469 231.812332,398.250458 
	C231.812332,387.050781 231.812332,376.490387 231.640991,365.129517 
	C231.530014,364.602051 231.419022,364.074585 231.299179,363.694611 
	C231.299179,363.694611 231.305313,363.672516 230.644531,363.533203 
M296.710999,394.891052 
	C297.134125,395.275818 297.557281,395.660553 298.326050,396.701782 
	C305.895538,400.948547 312.395416,399.208344 318.528717,393.196838 
	C318.528717,393.196838 318.922241,393.279541 319.075226,393.866119 
	C319.408997,394.593536 319.742767,395.320953 320.049530,396.606140 
	C320.338287,396.815857 320.627014,397.025604 320.901001,397.164276 
	C320.901001,397.164276 320.836121,397.197021 321.327820,397.912170 
	C324.084961,397.912170 326.842133,397.912170 329.766113,397.912170 
	C329.766113,378.847076 329.766113,360.110687 329.766113,340.822601 
	C326.394531,340.822601 323.271515,340.703705 320.172607,340.924103 
	C319.561218,340.967590 319.042786,342.318054 318.359253,343.660889 
	C318.403015,344.061157 318.446747,344.461426 318.244141,345.694855 
	C318.337158,347.129456 318.430176,348.564026 318.347900,350.862396 
	C318.347900,353.959320 318.347900,357.056244 318.347900,360.449493 
	C317.471558,359.867737 316.676117,359.352692 315.893890,358.818329 
	C308.267242,353.608490 298.522034,355.704529 294.096802,363.760559 
	C290.414307,370.464478 290.504120,377.692566 291.897430,385.741272 
	C292.905670,387.854156 293.913910,389.967072 294.978973,392.025787 
	C294.978973,392.025787 294.901917,392.040741 294.965179,392.667755 
	C295.527039,393.253906 296.088898,393.840057 296.657715,394.317017 
	C296.657715,394.317017 296.548309,394.319824 296.710999,394.891052 
M161.038544,355.677185 
	C161.436691,355.772461 161.834824,355.867737 162.892380,355.871338 
	C164.191025,353.111481 165.489685,350.351654 166.760712,347.650482 
	C153.819519,340.913116 140.507431,342.330963 132.063248,351.101166 
	C131.677887,351.695312 131.292526,352.289429 130.308365,353.230835 
	C123.997864,364.658997 123.397247,376.256683 129.372879,388.696777 
	C134.562317,397.646515 143.401566,400.253693 155.914062,398.429901 
	C167.098358,396.799744 164.842041,397.481110 164.602417,386.727386 
	C163.282181,387.169373 162.137039,387.552765 160.142227,387.943542 
	C158.191940,388.315582 156.256470,388.826416 154.288879,389.036316 
	C143.983978,390.135681 139.061157,386.295685 137.635330,375.996429 
	C137.318604,373.708618 137.141876,371.346527 137.327301,369.053131 
	C138.398483,355.803192 145.004120,351.185944 157.815628,354.580383 
	C158.772476,354.833893 159.754715,354.991638 160.750061,355.162811 
	C160.750061,355.162811 160.722931,355.133881 161.038544,355.677185 
M178.481308,280.066071 
	C174.860336,281.759888 171.232468,283.439178 167.620544,285.152100 
	C164.631378,286.569672 162.504425,285.953796 161.348526,282.683014 
	C159.795547,278.288666 157.844955,274.003906 156.662323,269.514771 
	C149.876129,243.754944 152.590439,219.112671 165.176987,195.465210 
	C176.786377,173.653641 194.103043,158.391418 216.802368,149.126724 
	C221.404480,147.248383 226.404572,146.345093 232.610138,144.602173 
	C218.640823,184.402908 205.256119,222.537994 191.533005,261.637238 
	C194.110184,260.957520 195.283829,260.818390 196.308197,260.351685 
	C207.519943,255.243515 218.793854,250.258850 229.857635,244.845718 
	C233.827911,242.903183 237.678574,240.317947 240.877853,237.282043 
	C247.244858,231.240204 248.556305,223.140030 248.571457,214.760620 
	C248.634399,179.928070 248.691010,145.095520 248.727463,110.262962 
	C248.729111,108.688873 248.512009,107.114555 248.396790,105.540344 
	C247.993622,105.449646 247.590439,105.358948 247.187271,105.268257 
	C245.178329,110.299736 242.617615,115.190880 241.293564,120.396553 
	C239.441803,127.677101 235.621445,131.835297 228.027756,133.306107 
	C214.475418,135.931061 201.872238,141.361969 190.619324,149.294891 
	C168.986084,164.545578 153.853531,184.711639 146.081268,210.232254 
	C136.918472,240.318710 139.923279,269.114166 154.727249,296.787537 
	C156.520966,300.140533 158.222565,301.120697 162.169357,299.234344 
	C177.189774,292.055481 192.466415,285.414917 207.600296,278.470734 
	C219.400711,273.056122 231.214920,267.658844 242.856110,261.915619 
	C248.259506,259.249847 249.272659,255.283829 246.786438,248.982574 
	C224.232605,259.247467 201.703049,269.501312 178.481308,280.066071 
M274.519592,156.831909 
	C273.184265,152.658463 271.848938,148.485001 270.294861,143.627853 
	C285.631470,146.554001 298.964417,152.252136 310.294312,161.373077 
	C346.967804,190.896439 361.132812,234.042694 343.915375,280.247742 
	C341.376099,287.062164 339.852661,287.732452 333.155518,284.668732 
	C312.751953,275.334778 292.431274,265.819733 272.043427,256.451202 
	C266.711945,254.001312 261.253387,251.827972 255.375397,249.324081 
	C255.007477,256.141663 257.404205,259.998047 262.781403,262.454712 
	C283.193542,271.780426 303.505615,281.324982 323.898712,290.692780 
	C331.089294,293.995850 338.404846,297.026703 345.889618,300.280212 
	C347.118866,298.148132 348.152466,296.459900 349.087006,294.718567 
	C360.770447,272.948883 364.167908,249.706375 360.474182,225.508240 
	C356.664246,200.549057 345.547821,179.026535 327.237823,161.625687 
	C312.106476,147.245682 294.122589,137.709625 273.574982,133.520554 
	C267.833252,132.349976 264.554932,129.581299 262.951599,123.904228 
	C261.202423,117.710594 258.678375,111.735794 256.134125,104.671707 
	C255.459229,106.288925 255.240479,106.568298 255.240555,106.847603 
	C255.251022,144.160049 255.144562,181.473358 255.391815,218.784332 
	C255.457916,228.760559 260.048340,236.856079 268.989410,241.683304 
	C276.884705,245.945908 285.087189,249.651688 293.231140,253.437469 
	C298.735748,255.996338 304.374115,258.267548 311.327789,261.259033 
	C298.829956,225.758987 286.824493,191.657425 274.519592,156.831909 
M249.559708,356.889282 
	C247.757355,356.889282 245.955017,356.889282 244.009659,356.889282 
	C244.009659,367.624023 243.569733,377.929962 244.194733,388.170868 
	C244.508621,393.314056 247.693298,397.237122 253.541595,398.376984 
	C260.362366,399.706329 266.357300,398.681793 271.488464,393.500977 
	C272.225922,395.212128 272.843872,396.645996 273.361725,397.847595 
	C276.352753,397.847595 278.956055,397.847595 281.777100,397.847595 
	C281.777100,384.204651 281.777100,370.824646 281.777100,357.164001 
	C278.095306,357.164001 274.678009,357.164001 270.662170,357.164001 
	C270.662170,361.073029 270.752594,364.854462 270.639465,368.629761 
	C270.495361,373.439270 270.508575,378.288055 269.855652,383.037720 
	C269.237396,387.535065 265.505829,390.410858 261.531952,390.018555 
	C256.795776,389.550995 255.194748,386.309692 255.026474,382.041199 
	C254.947891,380.048248 254.990845,378.050293 254.989807,376.054596 
	C254.986572,369.792542 254.988632,363.530487 254.988632,357.110626 
	C253.098465,357.017365 251.796158,356.953125 249.559708,356.889282 
M215.077835,296.519958 
	C223.234436,292.763855 231.334869,288.878967 239.564102,285.289368 
	C247.151245,281.979980 249.170761,278.573761 247.148895,270.211090 
	C219.006561,283.082184 191.022675,295.880829 162.987534,308.702942 
	C167.881546,317.812408 168.920029,317.968475 177.255859,313.974426 
	C189.550415,308.083527 202.005463,302.527588 215.077835,296.519958 
M275.107605,279.490784 
	C268.965546,276.670837 262.823486,273.850891 256.571136,270.980286 
	C254.939682,278.118500 256.844849,281.365509 263.878815,284.571777 
	C285.207764,294.294128 306.535248,304.019928 327.834015,313.808105 
	C335.051575,317.125000 336.265350,316.649292 338.736267,308.579071 
	C317.796539,298.982849 296.807892,289.364197 275.107605,279.490784 
M217.419739,305.006256 
	C205.043625,310.733154 192.656799,316.437164 180.307480,322.221283 
	C179.031540,322.818909 177.979050,323.893616 176.822876,324.746948 
	C177.861191,325.909058 178.747299,327.271484 179.965363,328.197021 
	C184.211960,331.423706 188.444901,329.849182 192.660782,327.934113 
	C205.987625,321.880371 219.340881,315.884644 232.656952,309.807373 
	C236.587570,308.013458 240.468353,306.099426 244.298477,304.099670 
	C247.422424,302.468597 249.845551,296.262451 248.011078,293.706390 
	C245.299011,289.927429 242.735916,293.611023 240.369614,294.624695 
	C232.882874,297.831909 225.524536,301.338806 217.419739,305.006256 
M270.453796,308.984589 
	C273.637115,310.403778 276.834045,311.793304 280.001312,313.247437 
	C291.158997,318.370148 302.257233,323.625946 313.476898,328.608551 
	C319.895203,331.458862 322.221710,330.378387 325.139618,323.756683 
	C302.194366,313.166870 279.244080,302.574738 256.164917,291.923126 
	C255.019043,299.182709 256.668304,302.368073 262.609009,305.169922 
	C265.012543,306.303497 267.378662,307.516388 270.453796,308.984589 
M175.095261,356.504120 
	C175.095261,370.258881 175.095261,384.013672 175.095261,397.765320 
	C179.190811,397.765320 182.596558,397.765320 185.993881,397.765320 
	C185.993881,378.701660 185.993881,359.990112 185.993881,341.254272 
	C182.217560,341.254272 178.826111,341.254272 175.094101,341.254272 
	C175.094101,346.242401 175.094101,350.874268 175.095261,356.504120 
M196.701782,335.881683 
	C194.121033,337.071167 194.585495,338.445312 196.487152,339.857391 
	C201.640106,343.683624 206.970871,343.206146 212.444046,340.573944 
	C220.074249,336.904358 227.749268,333.328033 235.386261,329.672455 
	C238.373245,328.242676 241.483887,326.970551 244.227737,325.156921 
	C248.441437,322.371704 249.233917,318.675995 247.043671,312.932495 
	C230.448990,320.497864 213.885574,328.048950 196.701782,335.881683 
M296.496765,341.808380 
	C301.307404,342.991669 305.181366,341.912994 307.914978,337.154785 
	C290.462280,329.165009 273.277313,321.297791 255.735062,313.266998 
	C254.498260,319.956818 257.323547,323.774811 261.904266,325.998230 
	C273.082855,331.424011 284.464172,336.432190 296.496765,341.808380 
M347.424438,340.879303 
	C343.477173,340.672729 340.910614,342.085358 341.057098,346.480286 
	C341.178406,350.118805 343.270813,351.899719 346.778931,351.992676 
	C350.280518,352.085480 353.146576,350.911804 353.604248,346.996826 
	C354.048004,343.200562 352.277832,340.972229 347.424438,340.879303 
M374.189819,350.964874 
	C374.761475,350.383331 375.844849,349.775360 375.816437,349.224762 
	C375.691315,346.799133 376.018677,342.986206 374.745209,342.284851 
	C372.511475,341.054626 369.007721,341.069977 366.473633,341.899994 
	C365.235626,342.305481 363.832855,346.379913 364.545959,347.618896 
	C365.692963,349.611877 368.457397,350.770050 370.703461,351.972839 
	C371.333649,352.310333 372.541382,351.569336 374.189819,350.964874 
M375.229126,397.935577 
	C375.487823,396.522339 375.959442,395.110809 375.971100,393.695557 
	C376.054504,383.576752 376.044830,373.457153 376.063049,363.337830 
	C376.066803,361.261658 376.063599,359.185516 376.063599,357.262573 
	C371.868073,357.262573 368.472595,357.262573 365.106262,357.262573 
	C365.106262,371.007233 365.106262,384.365509 365.106262,398.095947 
	C368.377777,398.095947 371.332458,398.095947 375.229126,397.935577 
M347.468628,356.878265 
	C345.687805,356.878265 343.907013,356.878265 341.916931,356.878265 
	C341.916931,370.849487 341.916931,384.223236 341.916931,397.731201 
	C345.779694,397.731201 349.302887,397.731201 352.916473,397.731201 
	C352.916473,384.073334 352.916473,370.808075 352.916473,357.205719 
	C351.303406,357.089905 349.866119,356.986694 347.468628,356.878265 
z"/>
<path fill="#09448E" opacity="1.000000" stroke="none" 
	d="
M178.827393,279.910614 
	C201.703049,269.501312 224.232605,259.247467 246.786438,248.982574 
	C249.272659,255.283829 248.259506,259.249847 242.856110,261.915619 
	C231.214920,267.658844 219.400711,273.056122 207.600296,278.470734 
	C192.466415,285.414917 177.189774,292.055481 162.169357,299.234344 
	C158.222565,301.120697 156.520966,300.140533 154.727249,296.787537 
	C139.923279,269.114166 136.918472,240.318710 146.081268,210.232254 
	C153.853531,184.711639 168.986084,164.545578 190.619324,149.294891 
	C201.872238,141.361969 214.475418,135.931061 228.027756,133.306107 
	C235.621445,131.835297 239.441803,127.677101 241.293564,120.396553 
	C242.617615,115.190880 245.178329,110.299736 247.187271,105.268257 
	C247.590439,105.358948 247.993622,105.449646 248.396790,105.540344 
	C248.512009,107.114555 248.729111,108.688873 248.727463,110.262962 
	C248.691010,145.095520 248.634399,179.928070 248.571457,214.760620 
	C248.556305,223.140030 247.244858,231.240204 240.877853,237.282043 
	C237.678574,240.317947 233.827911,242.903183 229.857635,244.845718 
	C218.793854,250.258850 207.519943,255.243515 196.308197,260.351685 
	C195.283829,260.818390 194.110184,260.957520 191.533005,261.637238 
	C205.256119,222.537994 218.640823,184.402908 232.610138,144.602173 
	C226.404572,146.345093 221.404480,147.248383 216.802368,149.126724 
	C194.103043,158.391418 176.786377,173.653641 165.176987,195.465210 
	C152.590439,219.112671 149.876129,243.754944 156.662323,269.514771 
	C157.844955,274.003906 159.795547,278.288666 161.348526,282.683014 
	C162.504425,285.953796 164.631378,286.569672 167.620544,285.152100 
	C171.232468,283.439178 174.860336,281.759888 178.827393,279.910614 
z"/>
<path fill="#EF980B" opacity="1.000000" stroke="none" 
	d="
M274.669312,157.193878 
	C286.824493,191.657425 298.829956,225.758987 311.327789,261.259033 
	C304.374115,258.267548 298.735748,255.996338 293.231140,253.437469 
	C285.087189,249.651688 276.884705,245.945908 268.989410,241.683304 
	C260.048340,236.856079 255.457916,228.760559 255.391815,218.784332 
	C255.144562,181.473358 255.251022,144.160049 255.240555,106.847603 
	C255.240479,106.568298 255.459229,106.288925 256.134125,104.671707 
	C258.678375,111.735794 261.202423,117.710594 262.951599,123.904228 
	C264.554932,129.581299 267.833252,132.349976 273.574982,133.520554 
	C294.122589,137.709625 312.106476,147.245682 327.237823,161.625687 
	C345.547821,179.026535 356.664246,200.549057 360.474182,225.508240 
	C364.167908,249.706375 360.770447,272.948883 349.087006,294.718567 
	C348.152466,296.459900 347.118866,298.148132 345.889618,300.280212 
	C338.404846,297.026703 331.089294,293.995850 323.898712,290.692780 
	C303.505615,281.324982 283.193542,271.780426 262.781403,262.454712 
	C257.404205,259.998047 255.007477,256.141663 255.375397,249.324081 
	C261.253387,251.827972 266.711945,254.001312 272.043427,256.451202 
	C292.431274,265.819733 312.751953,275.334778 333.155518,284.668732 
	C339.852661,287.732452 341.376099,287.062164 343.915375,280.247742 
	C361.132812,234.042694 346.967804,190.896439 310.294312,161.373077 
	C298.964417,152.252136 285.631470,146.554001 270.294861,143.627853 
	C271.848938,148.485001 273.184265,152.658463 274.669312,157.193878 
z"/>
<path fill="#E88A2F" opacity="1.000000" stroke="none" 
	d="
M250.026779,356.889069 
	C251.796158,356.953125 253.098465,357.017365 254.988632,357.110626 
	C254.988632,363.530487 254.986572,369.792542 254.989807,376.054596 
	C254.990845,378.050293 254.947891,380.048248 255.026474,382.041199 
	C255.194748,386.309692 256.795776,389.550995 261.531952,390.018555 
	C265.505829,390.410858 269.237396,387.535065 269.855652,383.037720 
	C270.508575,378.288055 270.495361,373.439270 270.639465,368.629761 
	C270.752594,364.854462 270.662170,361.073029 270.662170,357.164001 
	C274.678009,357.164001 278.095306,357.164001 281.777100,357.164001 
	C281.777100,370.824646 281.777100,384.204651 281.777100,397.847595 
	C278.956055,397.847595 276.352753,397.847595 273.361725,397.847595 
	C272.843872,396.645996 272.225922,395.212128 271.488464,393.500977 
	C266.357300,398.681793 260.362366,399.706329 253.541595,398.376984 
	C247.693298,397.237122 244.508621,393.314056 244.194733,388.170868 
	C243.569733,377.929962 244.009659,367.624023 244.009659,356.889282 
	C245.955017,356.889282 247.757355,356.889282 250.026779,356.889069 
z"/>
<path fill="#0B4389" opacity="1.000000" stroke="none" 
	d="
M214.735016,296.674500 
	C202.005463,302.527588 189.550415,308.083527 177.255859,313.974426 
	C168.920029,317.968475 167.881546,317.812408 162.987534,308.702942 
	C191.022675,295.880829 219.006561,283.082184 247.148895,270.211090 
	C249.170761,278.573761 247.151245,281.979980 239.564102,285.289368 
	C231.334869,288.878967 223.234436,292.763855 214.735016,296.674500 
z"/>
<path fill="#F28733" opacity="1.000000" stroke="none" 
	d="
M291.983429,384.987213 
	C290.504120,377.692566 290.414307,370.464478 294.096802,363.760559 
	C298.522034,355.704529 308.267242,353.608490 315.893890,358.818329 
	C316.676117,359.352692 317.471558,359.867737 318.347900,360.449493 
	C318.347900,357.056244 318.347900,353.959320 318.600372,350.325165 
	C319.143066,349.536896 319.433258,349.285858 320.035065,349.192322 
	C323.180023,350.880341 326.013367,352.410889 328.882324,354.413818 
	C328.898224,364.946808 328.878479,375.007446 328.692566,385.186279 
	C328.310028,385.473938 328.112122,385.662750 327.646362,386.002350 
	C326.584717,386.449829 325.809448,386.765869 324.664124,387.072266 
	C323.187866,388.020874 322.081665,388.979156 320.756042,390.116028 
	C320.020966,390.518494 319.505310,390.742371 318.796570,390.870819 
	C318.048431,390.898895 317.493347,391.022400 316.632324,391.162994 
	C315.918365,391.202087 315.510376,391.224121 314.640961,391.198822 
	C311.108734,391.134369 308.037903,391.117188 304.632996,391.024902 
	C303.209747,390.613251 302.120575,390.276672 300.883423,389.637146 
	C299.507874,388.883148 298.280334,388.432159 297.042175,387.970642 
	C297.031586,387.960083 297.010742,387.938568 296.903198,387.639771 
	C295.735291,386.088470 294.674927,384.835938 293.614532,383.583405 
	C293.070831,384.051361 292.527130,384.519287 291.983429,384.987213 
M308.111633,366.093842 
	C303.347748,368.867706 301.487671,376.533630 303.673126,383.923279 
	C304.790863,387.702667 306.960541,389.967987 311.114105,390.003906 
	C315.344727,390.040497 317.698425,387.576233 318.461029,383.870483 
	C319.088226,380.822662 319.132629,377.573090 318.913330,374.449585 
	C318.424164,367.482910 316.123779,365.655090 308.111633,366.093842 
z"/>
<path fill="#E99712" opacity="1.000000" stroke="none" 
	d="
M275.463440,279.618164 
	C296.807892,289.364197 317.796539,298.982849 338.736267,308.579071 
	C336.265350,316.649292 335.051575,317.125000 327.834015,313.808105 
	C306.535248,304.019928 285.207764,294.294128 263.878815,284.571777 
	C256.844849,281.365509 254.939682,278.118500 256.571136,270.980286 
	C262.823486,273.850891 268.965546,276.670837 275.463440,279.618164 
z"/>
<path fill="#0B4389" opacity="1.000000" stroke="none" 
	d="
M217.768143,304.868042 
	C225.524536,301.338806 232.882874,297.831909 240.369614,294.624695 
	C242.735916,293.611023 245.299011,289.927429 248.011078,293.706390 
	C249.845551,296.262451 247.422424,302.468597 244.298477,304.099670 
	C240.468353,306.099426 236.587570,308.013458 232.656952,309.807373 
	C219.340881,315.884644 205.987625,321.880371 192.660782,327.934113 
	C188.444901,329.849182 184.211960,331.423706 179.965363,328.197021 
	C178.747299,327.271484 177.861191,325.909058 176.822876,324.746948 
	C177.979050,323.893616 179.031540,322.818909 180.307480,322.221283 
	C192.656799,316.437164 205.043625,310.733154 217.768143,304.868042 
z"/>
<path fill="#E99712" opacity="1.000000" stroke="none" 
	d="
M270.107788,308.838867 
	C267.378662,307.516388 265.012543,306.303497 262.609009,305.169922 
	C256.668304,302.368073 255.019043,299.182709 256.164917,291.923126 
	C279.244080,302.574738 302.194366,313.166870 325.139618,323.756683 
	C322.221710,330.378387 319.895203,331.458862 313.476898,328.608551 
	C302.257233,323.625946 291.158997,318.370148 280.001312,313.247437 
	C276.834045,311.793304 273.637115,310.403778 270.107788,308.838867 
z"/>
<path fill="#F08933" opacity="1.000000" stroke="none" 
	d="
M129.274689,388.046692 
	C123.397247,376.256683 123.997864,364.658997 131.016312,353.080139 
	C136.158493,351.636322 140.592712,350.343170 145.462173,349.043640 
	C148.212677,349.078064 150.527939,349.118866 152.998840,349.451111 
	C155.435196,351.163269 157.715897,352.583984 160.154510,354.179077 
	C160.513428,354.602417 160.651001,354.882568 160.725143,355.193878 
	C159.754715,354.991638 158.772476,354.833893 157.815628,354.580383 
	C145.004120,351.185944 138.398483,355.803192 137.327301,369.053131 
	C137.141876,371.346527 137.318604,373.708618 137.635330,375.996429 
	C139.061157,386.295685 143.983978,390.135681 154.288879,389.036316 
	C156.256470,388.826416 158.191940,388.315582 160.316864,388.184875 
	C154.846283,391.890320 148.771957,394.242157 142.142426,392.769928 
	C137.721558,391.788177 133.555038,389.661133 129.274689,388.046692 
z"/>
<path fill="#F38632" opacity="1.000000" stroke="none" 
	d="
M200.001068,376.365448 
	C203.422455,375.212830 206.843857,374.060211 210.574524,373.315460 
	C210.668243,375.933319 210.452698,378.143311 210.037842,380.635040 
	C206.981674,383.704010 205.694717,386.734253 209.216919,389.819733 
	C211.851685,392.127777 216.873169,391.117828 219.309998,387.643890 
	C221.240143,384.892303 223.349960,381.689789 218.952515,378.612610 
	C218.615814,376.455658 218.272278,374.692291 217.928741,372.928955 
	C218.977615,371.959045 221.077652,370.573242 220.887802,370.093384 
	C220.181625,368.308563 218.830887,365.573792 217.525696,365.460602 
	C213.855957,365.142365 210.031677,365.670502 206.380737,366.415680 
	C204.131012,366.874847 202.519623,367.158875 201.858002,364.174438 
	C209.715515,359.314575 217.422928,357.764862 225.173447,363.596619 
	C227.142685,365.078308 229.098389,366.577972 231.093323,368.487366 
	C231.119553,374.877960 231.112808,380.850555 230.794037,386.984619 
	C228.207169,389.169159 225.932297,391.192261 223.293701,393.137817 
	C220.316986,394.171753 217.704025,395.283264 214.793091,396.136230 
	C207.659607,394.123962 200.756607,392.474487 197.556641,384.647461 
	C198.312561,381.672607 199.156815,379.019043 200.001068,376.365448 
z"/>
<path fill="#F58A35" opacity="1.000000" stroke="none" 
	d="
M175.094681,356.005127 
	C175.094101,350.874268 175.094101,346.242401 175.094101,341.254272 
	C178.826111,341.254272 182.217560,341.254272 185.993881,341.254272 
	C185.993881,359.990112 185.993881,378.701660 185.993881,397.765320 
	C182.596558,397.765320 179.190811,397.765320 175.095261,397.765320 
	C175.095261,384.013672 175.095261,370.258881 175.094681,356.005127 
z"/>
<path fill="#0B4389" opacity="1.000000" stroke="none" 
	d="
M197.011978,335.740875 
	C213.885574,328.048950 230.448990,320.497864 247.043671,312.932495 
	C249.233917,318.675995 248.441437,322.371704 244.227737,325.156921 
	C241.483887,326.970551 238.373245,328.242676 235.386261,329.672455 
	C227.749268,333.328033 220.074249,336.904358 212.444046,340.573944 
	C206.970871,343.206146 201.640106,343.683624 196.487152,339.857391 
	C194.585495,338.445312 194.121033,337.071167 197.011978,335.740875 
z"/>
<path fill="#E99712" opacity="1.000000" stroke="none" 
	d="
M296.130310,341.708435 
	C284.464172,336.432190 273.082855,331.424011 261.904266,325.998230 
	C257.323547,323.774811 254.498260,319.956818 255.735062,313.266998 
	C273.277313,321.297791 290.462280,329.165009 307.914978,337.154785 
	C305.181366,341.912994 301.307404,342.991669 296.130310,341.708435 
z"/>
<path fill="#F0A716" opacity="1.000000" stroke="none" 
	d="
M129.323792,388.371735 
	C133.555038,389.661133 137.721558,391.788177 142.142426,392.769928 
	C148.771957,394.242157 154.846283,391.890320 160.741699,388.181152 
	C162.137039,387.552765 163.282181,387.169373 164.602417,386.727386 
	C164.842041,397.481110 167.098358,396.799744 155.914062,398.429901 
	C143.401566,400.253693 134.562317,397.646515 129.323792,388.371735 
z"/>
<path fill="#F0A716" opacity="1.000000" stroke="none" 
	d="
M160.737610,355.178345 
	C160.651001,354.882568 160.513428,354.602417 160.063385,353.847290 
	C157.490631,351.947357 155.166916,350.553528 152.843201,349.159698 
	C150.527939,349.118866 148.212677,349.078064 145.140839,348.835052 
	C140.434860,349.363831 136.485474,350.094757 132.536087,350.825684 
	C140.507431,342.330963 153.819519,340.913116 166.760712,347.650482 
	C165.489685,350.351654 164.191025,353.111481 162.334717,355.733276 
	C161.425674,355.441437 161.074295,355.287659 160.722931,355.133881 
	C160.722931,355.133881 160.750061,355.162811 160.737610,355.178345 
z"/>
<path fill="#F0A716" opacity="1.000000" stroke="none" 
	d="
M231.060303,368.069397 
	C229.098389,366.577972 227.142685,365.078308 225.173447,363.596619 
	C217.422928,357.764862 209.715515,359.314575 201.712372,363.859924 
	C200.819138,362.816956 200.241760,361.657990 199.680740,360.531921 
	C207.008362,354.905090 220.737579,355.321472 229.043396,361.841766 
	C229.460526,362.621552 229.793015,362.861359 230.125504,363.101196 
	C230.298523,363.245209 230.471527,363.389191 230.941498,363.642792 
	C231.238480,363.752380 231.308044,363.547119 231.308044,363.547119 
	C231.419022,364.074585 231.530014,364.602051 231.587494,365.779297 
	C231.376099,366.975861 231.218201,367.522644 231.060303,368.069397 
z"/>
<path fill="#DB8030" opacity="1.000000" stroke="none" 
	d="
M347.839661,340.896942 
	C352.277832,340.972229 354.048004,343.200562 353.604248,346.996826 
	C353.146576,350.911804 350.280518,352.085480 346.778931,351.992676 
	C343.270813,351.899719 341.178406,350.118805 341.057098,346.480286 
	C340.910614,342.085358 343.477173,340.672729 347.839661,340.896942 
z"/>
<path fill="#FBAF0C" opacity="1.000000" stroke="none" 
	d="
M301.031403,389.940125 
	C302.120575,390.276672 303.209747,390.613251 304.822388,391.341400 
	C308.694733,393.508636 311.984283,394.095520 315.102356,391.246124 
	C315.510376,391.224121 315.918365,391.202087 316.730225,391.440002 
	C317.464844,392.188049 317.795593,392.676178 318.126373,393.164307 
	C312.395416,399.208344 305.895538,400.948547 298.072998,396.089447 
	C297.396057,395.091370 296.972168,394.705597 296.548309,394.319824 
	C296.548309,394.319824 296.657715,394.317017 296.601196,394.064362 
	C295.997101,393.221405 295.449493,392.631073 294.901917,392.040741 
	C294.901917,392.040741 294.978973,392.025787 294.929443,391.725952 
	C295.590179,390.263641 296.300476,389.101105 297.010742,387.938568 
	C297.010742,387.938568 297.031586,387.960083 297.226532,388.248566 
	C298.624786,389.004730 299.828094,389.472443 301.031403,389.940125 
z"/>
<path fill="#E4863A" opacity="1.000000" stroke="none" 
	d="
M373.837006,351.143982 
	C372.541382,351.569336 371.333649,352.310333 370.703461,351.972839 
	C368.457397,350.770050 365.692963,349.611877 364.545959,347.618896 
	C363.832855,346.379913 365.235626,342.305481 366.473633,341.899994 
	C369.007721,341.069977 372.511475,341.054626 374.745209,342.284851 
	C376.018677,342.986206 375.691315,346.799133 375.816437,349.224762 
	C375.844849,349.775360 374.761475,350.383331 373.837006,351.143982 
z"/>
<path fill="#DF9256" opacity="1.000000" stroke="none" 
	d="
M374.758118,398.015747 
	C371.332458,398.095947 368.377777,398.095947 365.106262,398.095947 
	C365.106262,384.365509 365.106262,371.007233 365.106262,357.262573 
	C368.472595,357.262573 371.868073,357.262573 376.063599,357.262573 
	C376.063599,359.185516 376.066803,361.261658 376.063049,363.337830 
	C376.044830,373.457153 376.054504,383.576752 375.971100,393.695557 
	C375.959442,395.110809 375.487823,396.522339 374.758118,398.015747 
M374.640228,387.262726 
	C374.736145,379.140045 374.811554,371.017059 374.938965,362.894897 
	C374.984314,360.002106 374.158112,357.988739 370.783905,358.075439 
	C367.857758,358.150635 366.019165,359.358398 366.018311,362.528564 
	C366.015472,372.816223 365.899078,383.107330 366.189758,393.386871 
	C366.224030,394.598755 368.390991,396.567291 369.779633,396.774292 
	C374.368195,397.458282 375.181274,395.843475 374.640228,387.262726 
z"/>
<path fill="#D88B45" opacity="1.000000" stroke="none" 
	d="
M347.948730,356.880890 
	C349.866119,356.986694 351.303406,357.089905 352.916473,357.205719 
	C352.916473,370.808075 352.916473,384.073334 352.916473,397.731201 
	C349.302887,397.731201 345.779694,397.731201 341.916931,397.731201 
	C341.916931,384.223236 341.916931,370.849487 341.916931,356.878265 
	C343.907013,356.878265 345.687805,356.878265 347.948730,356.880890 
M352.007629,389.328735 
	C352.004639,380.531219 351.969330,371.733490 352.017487,362.936249 
	C352.032837,360.127960 351.547577,358.052399 348.041260,358.001709 
	C344.771027,357.954437 343.021515,359.139618 343.032501,362.583862 
	C343.064270,372.542999 343.058258,382.502350 343.025269,392.461487 
	C343.010803,396.829742 345.802643,397.363220 349.084503,396.740784 
	C352.878540,396.021210 351.716827,392.749451 352.007629,389.328735 
z"/>
<path fill="#FBAF0C" opacity="1.000000" stroke="none" 
	d="
M328.846710,353.941467 
	C326.013367,352.410889 323.180023,350.880341 320.048431,348.856873 
	C319.330292,347.196503 318.910400,346.029114 318.490479,344.861694 
	C318.446747,344.461426 318.403015,344.061157 318.775574,343.222717 
	C327.471100,340.351288 328.955353,341.437561 328.944916,349.946808 
	C328.943268,351.278381 328.880981,352.609924 328.846710,353.941467 
z"/>
<path fill="#F0A716" opacity="1.000000" stroke="none" 
	d="
M197.644989,384.968750 
	C200.756607,392.474487 207.659607,394.123962 214.600800,396.279938 
	C214.128067,397.236237 213.549652,397.790314 212.971252,398.344421 
	C212.248795,398.524353 211.526306,398.704285 210.190231,398.708252 
	C208.696457,398.631409 207.816254,398.730621 206.936066,398.829834 
	C206.493118,398.808105 206.050156,398.786346 205.236847,398.420502 
	C204.222870,398.001099 203.579269,397.925781 202.935654,397.850494 
	C202.513901,397.756317 202.092148,397.662140 201.273834,397.199371 
	C200.465256,396.724670 200.053253,396.618530 199.641266,396.512421 
	C199.641266,396.512421 199.534195,396.505524 199.461945,396.095947 
	C198.808121,392.113831 198.226562,388.541290 197.644989,384.968750 
z"/>
<path fill="#C8933F" opacity="1.000000" stroke="none" 
	d="
M328.882324,354.413818 
	C328.880981,352.609924 328.943268,351.278381 328.944916,349.946808 
	C328.955353,341.437561 327.471100,340.351288 318.836670,342.925171 
	C319.042786,342.318054 319.561218,340.967590 320.172607,340.924103 
	C323.271515,340.703705 326.394531,340.822601 329.766113,340.822601 
	C329.766113,360.110687 329.766113,378.847076 329.766113,397.912170 
	C326.842133,397.912170 324.084961,397.912170 321.526855,397.512299 
	C328.815704,396.934143 329.051178,396.692871 328.968811,389.469543 
	C328.955780,388.325592 328.851593,387.182709 328.821136,385.797546 
	C328.852722,385.555756 328.858765,385.068054 328.858765,385.068054 
	C328.878479,375.007446 328.898224,364.946808 328.882324,354.413818 
z"/>
<path fill="#FBAF0C" opacity="1.000000" stroke="none" 
	d="
M328.789551,386.039337 
	C328.851593,387.182709 328.955780,388.325592 328.968811,389.469543 
	C329.051178,396.692871 328.815704,396.934143 321.281006,397.154724 
	C320.836121,397.197021 320.901001,397.164276 320.814758,396.971222 
	C320.540314,396.508850 320.322998,396.265594 320.076538,396.048370 
	C319.742767,395.320953 319.408997,394.593536 319.018250,393.187195 
	C318.970764,391.994293 318.980225,391.480286 318.989655,390.966278 
	C319.505310,390.742371 320.020966,390.518494 321.106445,390.107666 
	C322.795563,388.974487 323.914856,388.028229 325.034149,387.081940 
	C325.809448,386.765869 326.584717,386.449829 327.859528,386.051514 
	C328.359039,385.969269 328.789520,386.039337 328.789551,386.039337 
z"/>
<path fill="#C3842A" opacity="1.000000" stroke="none" 
	d="
M231.093307,368.487366 
	C231.218201,367.522644 231.376099,366.975861 231.673157,366.179535 
	C231.812332,376.490387 231.812332,387.050781 231.812332,398.250458 
	C229.655472,398.105469 226.928268,397.922119 224.168839,397.300537 
	C224.136612,396.862274 224.352142,396.652954 224.745880,396.753906 
	C229.839142,397.887482 231.503754,395.642181 231.231506,391.250732 
	C231.140198,389.777924 231.145111,388.299194 231.106049,386.823151 
	C231.112808,380.850555 231.119553,374.877960 231.093307,368.487366 
z"/>
<path fill="#F59F1F" opacity="1.000000" stroke="none" 
	d="
M217.510529,372.819702 
	C218.272278,374.692291 218.615814,376.455658 218.560699,378.712769 
	C215.520401,379.588806 212.878769,379.971039 210.237152,380.353271 
	C210.452698,378.143311 210.668243,375.933319 210.986145,373.392456 
	C213.089767,372.944580 215.091034,372.827515 217.510529,372.819702 
z"/>
<path fill="#C3842A" opacity="1.000000" stroke="none" 
	d="
M197.556641,384.647461 
	C198.226562,388.541290 198.808121,392.113831 199.458160,396.042419 
	C194.015320,390.333191 193.965561,382.640045 199.699738,376.468140 
	C199.156815,379.019043 198.312561,381.672607 197.556641,384.647461 
z"/>
<path fill="#F59F1F" opacity="1.000000" stroke="none" 
	d="
M132.299667,350.963440 
	C136.485474,350.094757 140.434860,349.363831 144.705597,348.841431 
	C140.592712,350.343170 136.158493,351.636322 131.315704,352.906525 
	C131.292526,352.289429 131.677887,351.695312 132.299667,350.963440 
z"/>
<path fill="#C3842A" opacity="1.000000" stroke="none" 
	d="
M213.327484,398.376343 
	C213.549652,397.790314 214.128067,397.236237 214.898773,396.538483 
	C217.704025,395.283264 220.316986,394.171753 223.359894,393.478943 
	C223.977264,394.816071 224.164703,395.734528 224.352142,396.652954 
	C224.352142,396.652954 224.136612,396.862274 224.028549,396.966583 
	C223.335281,396.141602 222.750076,395.212280 222.268372,394.447327 
	C219.333130,395.801636 216.508423,397.104950 213.327484,398.376343 
z"/>
<path fill="#F59F1F" opacity="1.000000" stroke="none" 
	d="
M296.903198,387.639771 
	C296.300476,389.101105 295.590179,390.263641 294.901031,391.753052 
	C293.913910,389.967072 292.905670,387.854156 291.940430,385.364258 
	C292.527130,384.519287 293.070831,384.051361 293.614532,383.583405 
	C294.674927,384.835938 295.735291,386.088470 296.903198,387.639771 
z"/>
<path fill="#C8933F" opacity="1.000000" stroke="none" 
	d="
M318.367310,345.278259 
	C318.910400,346.029114 319.330292,347.196503 319.736816,348.699371 
	C319.433258,349.285858 319.143066,349.536896 318.688019,349.893280 
	C318.430176,348.564026 318.337158,347.129456 318.367310,345.278259 
z"/>
<path fill="#F59F1F" opacity="1.000000" stroke="none" 
	d="
M318.796570,390.870819 
	C318.980225,391.480286 318.970764,391.994293 318.941772,392.893921 
	C318.922241,393.279541 318.528717,393.196838 318.327545,393.180573 
	C317.795593,392.676178 317.464844,392.188049 317.036194,391.422913 
	C317.493347,391.022400 318.048431,390.898895 318.796570,390.870819 
z"/>
<path fill="#C3842A" opacity="1.000000" stroke="none" 
	d="
M203.162750,398.015900 
	C203.579269,397.925781 204.222870,398.001099 204.935349,398.274597 
	C204.466095,398.375641 203.927979,398.278473 203.162750,398.015900 
z"/>
<path fill="#C3842A" opacity="1.000000" stroke="none" 
	d="
M207.318649,398.935974 
	C207.816254,398.730621 208.696457,398.631409 209.814590,398.682495 
	C209.268768,398.902527 208.485001,398.972321 207.318649,398.935974 
z"/>
<path fill="#F59F1F" opacity="1.000000" stroke="none" 
	d="
M294.933533,392.354248 
	C295.449493,392.631073 295.997101,393.221405 296.597717,394.118958 
	C296.088898,393.840057 295.527039,393.253906 294.933533,392.354248 
z"/>
<path fill="#F59F1F" opacity="1.000000" stroke="none" 
	d="
M296.629639,394.605438 
	C296.972168,394.705597 297.396057,395.091370 297.900177,395.761230 
	C297.557281,395.660553 297.134125,395.275818 296.629639,394.605438 
z"/>
<path fill="#C3842A" opacity="1.000000" stroke="none" 
	d="
M199.758667,396.702820 
	C200.053253,396.618530 200.465256,396.724670 201.011658,397.005768 
	C200.722748,397.084900 200.299408,396.989075 199.758667,396.702820 
z"/>
<path fill="#C3842A" opacity="1.000000" stroke="none" 
	d="
M230.174576,362.887268 
	C229.793015,362.861359 229.460526,362.621552 229.123901,362.167145 
	C229.487717,362.192841 229.855682,362.433075 230.174576,362.887268 
z"/>
<path fill="#C3842A" opacity="1.000000" stroke="none" 
	d="
M231.303619,363.620850 
	C231.308044,363.547119 231.238480,363.752380 231.271896,363.712463 
	C231.305313,363.672516 231.299179,363.694611 231.303619,363.620850 
z"/>
<path fill="#C8933F" opacity="1.000000" stroke="none" 
	d="
M320.063049,396.327271 
	C320.322998,396.265594 320.540314,396.508850 320.822144,397.006744 
	C320.627014,397.025604 320.338287,396.815857 320.063049,396.327271 
z"/>
<path fill="#F08933" opacity="1.000000" stroke="none" 
	d="
M160.880737,355.405518 
	C161.074295,355.287659 161.425674,355.441437 162.005005,355.779114 
	C161.834824,355.867737 161.436691,355.772461 160.880737,355.405518 
z"/>
<path fill="#090200" opacity="1.000000" stroke="none" 
	d="
M308.518982,366.011414 
	C316.123779,365.655090 318.424164,367.482910 318.913330,374.449585 
	C319.132629,377.573090 319.088226,380.822662 318.461029,383.870483 
	C317.698425,387.576233 315.344727,390.040497 311.114105,390.003906 
	C306.960541,389.967987 304.790863,387.702667 303.673126,383.923279 
	C301.487671,376.533630 303.347748,368.867706 308.518982,366.011414 
z"/>
<path fill="#F59F1F" opacity="1.000000" stroke="none" 
	d="
M314.640961,391.198822 
	C311.984283,394.095520 308.694733,393.508636 305.156464,391.416504 
	C308.037903,391.117188 311.108734,391.134369 314.640961,391.198822 
z"/>
<path fill="#F59F1F" opacity="1.000000" stroke="none" 
	d="
M324.664124,387.072266 
	C323.914856,388.028229 322.795563,388.974487 321.325867,389.929077 
	C322.081665,388.979156 323.187866,388.020874 324.664124,387.072266 
z"/>
<path fill="#F59F1F" opacity="1.000000" stroke="none" 
	d="
M300.883423,389.637146 
	C299.828094,389.472443 298.624786,389.004730 297.237122,388.259094 
	C298.280334,388.432159 299.507874,388.883148 300.883423,389.637146 
z"/>
<path fill="#F59F1F" opacity="1.000000" stroke="none" 
	d="
M328.821106,385.797546 
	C328.789520,386.039337 328.359039,385.969269 328.145874,385.920105 
	C328.112122,385.662750 328.310028,385.473938 328.692566,385.186279 
	C328.858765,385.068054 328.852722,385.555756 328.821106,385.797546 
z"/>
<path fill="#F59F1F" opacity="1.000000" stroke="none" 
	d="
M152.998840,349.451111 
	C155.166916,350.553528 157.490631,351.947357 159.905472,353.672943 
	C157.715897,352.583984 155.435196,351.163269 152.998840,349.451111 
z"/>
<path fill="#130702" opacity="1.000000" stroke="none" 
	d="
M210.037842,380.635010 
	C212.878769,379.971039 215.520401,379.588806 218.553864,379.106415 
	C223.349960,381.689789 221.240143,384.892303 219.309998,387.643890 
	C216.873169,391.117828 211.851685,392.127777 209.216919,389.819733 
	C205.694717,386.734253 206.981674,383.704010 210.037842,380.635010 
z"/>
<path fill="#FBAF0C" opacity="1.000000" stroke="none" 
	d="
M224.745880,396.753906 
	C224.164703,395.734528 223.977264,394.816071 223.723633,393.556519 
	C225.932297,391.192261 228.207169,389.169159 230.794052,386.984619 
	C231.145111,388.299194 231.140198,389.777924 231.231506,391.250732 
	C231.503754,395.642181 229.839142,397.887482 224.745880,396.753906 
z"/>
<path fill="#FB8A30" opacity="1.000000" stroke="none" 
	d="
M374.700989,387.687622 
	C375.181274,395.843475 374.368195,397.458282 369.779633,396.774292 
	C368.390991,396.567291 366.224030,394.598755 366.189758,393.386871 
	C365.899078,383.107330 366.015472,372.816223 366.018311,362.528564 
	C366.019165,359.358398 367.857758,358.150635 370.783905,358.075439 
	C374.158112,357.988739 374.984314,360.002106 374.938965,362.894897 
	C374.811554,371.017059 374.736145,379.140045 374.700989,387.687622 
z"/>
<path fill="#F08525" opacity="1.000000" stroke="none" 
	d="
M352.005157,389.800171 
	C351.716827,392.749451 352.878540,396.021210 349.084503,396.740784 
	C345.802643,397.363220 343.010803,396.829742 343.025269,392.461487 
	C343.058258,382.502350 343.064270,372.542999 343.032501,362.583862 
	C343.021515,359.139618 344.771027,357.954437 348.041260,358.001709 
	C351.547577,358.052399 352.032837,360.127960 352.017487,362.936249 
	C351.969330,371.733490 352.004639,380.531219 352.005157,389.800171 
z"/>
</svg>